<?xml version="1.0" encoding="UTF-8" standalone="no"?>
<!DOCTYPE svg PUBLIC "-//W3C//DTD SVG 1.1//EN" "http://www.w3.org/Graphics/SVG/1.1/DTD/svg11.dtd">
<svg width="100%" height="100%" viewBox="0 0 256 256" version="1.1" xmlns="http://www.w3.org/2000/svg" xmlns:xlink="http://www.w3.org/1999/xlink" xml:space="preserve" xmlns:serif="http://www.serif.com/" style="fill-rule:evenodd;clip-rule:evenodd;stroke-linejoin:round;stroke-miterlimit:2;">
    <g transform="matrix(1,0,0,1,-267.721,0)">
        <g id="Icon" transform="matrix(0.25,0,0,0.333333,267.721,0)">
            <rect x="0" y="0" width="1024" height="768" style="fill:none;"/>
            <g transform="matrix(5.48283,4.60035,-6.1338,4.11212,-970.763,-2053.49)">
                <path d="M367.648,96.953C366.97,96.108 366.881,94.933 367.423,93.995C367.965,93.057 369.056,92.418 370.098,92.713C383.546,96.509 398.796,99.223 417.276,100L461.721,100L474.066,114.244C473.988,114.312 473.92,114.392 473.864,114.486L470.864,119.486C470.673,119.803 470.674,120.201 470.866,120.518L473.555,124.961C473.555,124.961 470.862,129.489 470.862,129.489C470.674,129.805 470.674,130.199 470.864,130.514L473.555,135C473.555,135 470.864,139.486 470.864,139.486C470.674,139.802 470.674,140.198 470.864,140.514L473.864,145.514C473.92,145.608 473.988,145.688 474.066,145.756L461.721,160L363.721,160C360.41,160 357.721,157.311 357.721,154L357.721,106C357.721,102.689 360.41,100 363.721,100L366.039,100C374.265,112.373 384.109,124.936 399.881,135.353C385.75,123.701 376.205,110.825 368.036,97.584L367.648,96.953ZM487.721,130L475.41,115.795L472.889,119.998L475.577,124.439C475.768,124.755 475.77,125.151 475.581,125.468C475.581,125.468 472.886,129.998 472.886,129.998L475.579,134.486C475.769,134.802 475.769,135.198 475.579,135.514C475.579,135.514 472.887,140 472.887,140L475.41,144.205L487.721,130ZM396.376,112.491C401.667,108.285 401.542,107.386 404.356,101.995L405.9,102.198C402.974,107.369 402.597,108.839 396.376,112.491C402.032,109.929 408.007,109.296 413.711,108.991C414.027,109.14 414.119,109.48 413.793,109.859L413.793,109.859C412.731,111.398 411.515,112.925 409.815,114.215C413.182,112.633 416.93,111.578 420.253,110.616L420.522,111.139C416.637,112.188 412.374,113.343 408.58,115.052C407.911,115.457 407.174,115.827 406.357,116.153L406.188,116.219C409.209,114.512 411.143,112.292 412.705,109.898C407.222,110.118 401.797,110.716 396.376,112.491Z"/>
            </g>
        </g>
    </g>
</svg>
